<svg xmlns="http://www.w3.org/2000/svg" xmlns:xlink="http://www.w3.org/1999/xlink" viewBox="-307 5384.281 224.11 133.719">
  <defs>
    <style>
      .cls-1 {
        fill: #fff;
        stroke: #95989a;
      }

      .cls-12, .cls-2 {
        fill: none;
      }

      .cls-2 {
        stroke: #9a9597;
      }

      .cls-3 {
        fill: #db3236;
        stroke: #db3236;
      }

      .cls-3, .cls-4, .cls-5, .cls-6, .cls-7, .cls-8 {
        stroke-width: 2px;
      }

      .cls-4 {
        fill: #bdbdbd;
        stroke: #bdbdbd;
      }

      .cls-5 {
        fill: #f4c20d;
        stroke: #f4c20d;
      }

      .cls-6 {
        fill: #4885ed;
        stroke: #4885ed;
      }

      .cls-7 {
        fill: #3cba54;
        stroke: #3cba54;
      }

      .cls-8 {
        fill: #4cd8b9;
        font-size: 30px;
        font-family: Seravek-Italic, Seravek;
        font-style: italic;
        letter-spacing: 0.002em;
      }

      .cls-12, .cls-8, .cls-9 {
        stroke: #4cd8b9;
      }

      .cls-9 {
        fill: rgba(111,14,14,0);
      }

      .cls-12, .cls-9 {
        stroke-width: 4px;
      }

      .cls-10 {
        clip-path: url(#clip-path);
      }

      .cls-11 {
        fill: #06ba7e;
      }
    </style>
    <clipPath id="clip-path">
      <ellipse id="Ellipse_7" data-name="Ellipse 7" class="cls-1" cx="32.145" cy="35.52" rx="32.145" ry="35.52" transform="translate(177 340)"/>
    </clipPath>
  </defs>
  <g id="Group_99" data-name="Group 99" transform="translate(-375 5271)">
    <path id="Path_28" data-name="Path 28" class="cls-2" d="M.5.5H223.61v129H.5Z" transform="translate(68 117)"/>
    <g id="Group_33" data-name="Group 33" transform="translate(54 -111)">
      <path id="Path_49" data-name="Path 49" class="cls-3" d="M3.5.5a3,3,0,1,1-3,3A3,3,0,0,1,3.5.5Z" transform="translate(94.31 333)"/>
      <path id="Path_51" data-name="Path 51" class="cls-4" d="M3.5.5a3,3,0,1,1-3,3A3,3,0,0,1,3.5.5Z" transform="translate(148.931 333)"/>
      <path id="Path_50" data-name="Path 50" class="cls-5" d="M3.5.5a3,3,0,1,1-3,3A3,3,0,0,1,3.5.5Z" transform="translate(121.62 333)"/>
      <path id="Path_13" data-name="Path 13" class="cls-6" d="M3.5.5a3,3,0,1,1-3,3A3,3,0,0,1,3.5.5Z" transform="translate(68 333)"/>
      <path id="Path_52" data-name="Path 52" class="cls-7" d="M3.5.5a3,3,0,1,1-3,3A3,3,0,0,1,3.5.5Z" transform="translate(175.931 333)"/>
    </g>
    <text id="CocoCar" class="cls-8" transform="translate(176.11 216.27)"><tspan x="-52.26" y="0">CocoCar</tspan></text>
    <path id="Path_1" data-name="Path 1" class="cls-9" d="M94.261.2S78.827-1.574,67.748,4.869C59.72,9.539,56.825,21.192,45.833,23.056a17.689,17.689,0,0,1-4.031.13c-21.5-1.534-31.661,3.286-35.936,9.076A22.206,22.206,0,0,0,4.651,40.58s.427,9.818,2.98,10,9.925.062,9.925.062" transform="matrix(1, 0.017, -0.017, 1, 97.048, 159)"/>
    <g id="Group_47" data-name="Group 47" transform="translate(-4 25)">
      <g id="Mask_Group_5" data-name="Mask Group 5" class="cls-10" transform="matrix(0.848, 0.53, -0.53, 0.848, 238.49, -293.851)">
        <g id="placeholder-2" transform="translate(185.505 340)">
          <path id="Path_14" data-name="Path 14" class="cls-11" d="M48.049,23.011a8.876,8.876,0,0,0-8.63,9.082,8.876,8.876,0,0,0,8.63,9.082,8.876,8.876,0,0,0,8.63-9.082A8.876,8.876,0,0,0,48.049,23.011Zm0,15.568a6.5,6.5,0,1,1,6.164-6.487A6.339,6.339,0,0,1,48.049,38.579Z" transform="translate(-24.189 -7.442)"/>
          <path id="Path_15" data-name="Path 15" class="cls-11" d="M56.088,7.287a22.818,22.818,0,0,0-33.434,0c-8.264,8.695-9.29,25.055-2.224,34.967L39.371,71.04,58.284,42.294C65.378,32.342,64.351,15.982,56.088,7.287Zm.2,33.49-16.913,25.7L22.431,40.737C16.022,31.744,16.94,16.97,24.4,9.122a20.438,20.438,0,0,1,29.946,0C61.8,16.97,62.722,31.744,56.284,40.777Z" transform="translate(-15.729 0)"/>
        </g>
      </g>
    </g>
    <g id="Group_36" data-name="Group 36" transform="translate(23 -111)">
      <path id="Path_3" data-name="Path 3" class="cls-12" d="M0,0S2.969,7.057,7.734,9.533a16.424,16.424,0,0,0,2.418,1.138,6.885,6.885,0,0,0,2.2.778l2.046.368,5.23.809c2.594.809,1.514,4.5,1.847,8.229-.093,3.543.57,7.352-.5,8.337a15.75,15.75,0,0,1-9.183,3.655" transform="matrix(0.999, 0.035, -0.035, 0.999, 208.37, 286.818)"/>
    </g>
  </g>
</svg>
